<svg version="1.1" id="Layer_1" xmlns="http://www.w3.org/2000/svg" xmlns:xlink="http://www.w3.org/1999/xlink" x="0px" y="0px"
	 width="100%" viewBox="0 0 512 512" enable-background="new 0 0 512 512" xml:space="preserve">
<path fill="#000000" opacity="1.000000" stroke="none" 
	d="
M1.000000,389.000000 
	C1.000000,259.709869 1.000000,130.419739 1.000000,1.064801 
	C171.566452,1.064801 342.132935,1.064801 513.000000,1.064801 
	C513.000000,130.023163 513.000000,259.046570 512.728027,388.858307 
	C508.820435,386.216980 504.650726,384.759613 499.519379,384.904663 
	C489.367493,385.191589 479.200043,384.927979 469.021851,384.492371 
	C469.030457,382.760620 469.056213,381.428436 469.391418,379.928986 
	C475.089264,368.662415 481.182343,357.842804 485.721405,346.406433 
	C495.580353,321.566376 501.524506,295.718903 501.907135,268.880859 
	C502.103119,255.131897 502.247314,241.267578 500.734741,227.641922 
	C499.291534,214.640884 496.291901,201.712234 492.855591,189.056107 
	C487.574890,169.607010 480.006226,150.995071 469.045898,133.451996 
	C469.005981,131.506577 468.837708,129.993057 469.026886,128.525620 
	C470.171112,119.649315 463.788391,112.729843 454.912292,111.585983 
	C445.356812,100.524673 436.112885,89.611282 426.426147,79.106232 
	C422.446869,74.790779 417.778839,70.977356 412.962341,67.592674 
	C400.068573,58.531879 387.347229,49.106499 373.780457,41.150921 
	C354.070251,29.592836 332.568115,21.996389 310.249542,17.223270 
	C298.465485,14.703094 286.400696,12.800520 274.386475,12.233083 
	C260.346130,11.569953 246.174026,12.060383 232.150574,13.188094 
	C220.659363,14.112172 209.153397,16.066362 197.917145,18.690722 
	C175.526169,23.920406 154.438690,32.682453 134.471558,44.137199 
	C116.776360,54.288582 100.367935,66.249474 86.046082,80.709122 
	C76.358788,90.489632 67.892441,101.479454 58.493980,111.949203 
	C51.870937,112.804474 47.313881,116.195839 45.597340,122.105034 
	C44.526550,125.791214 45.100437,129.955154 44.623314,134.067780 
	C38.874893,145.479660 32.745903,156.453094 28.147470,168.034225 
	C18.403978,192.573212 12.499923,218.108398 12.094940,244.623322 
	C11.887500,258.204834 11.756816,271.903137 13.259377,285.362457 
	C14.747212,298.689880 17.705624,311.949188 21.145185,324.940186 
	C26.307951,344.439575 34.036095,362.991364 44.963440,380.498657 
	C44.952679,382.248779 44.914040,383.595184 44.414978,384.962524 
	C29.657869,386.552216 14.714683,381.207123 1.000000,389.000000 
z"/>
<path fill="#000000" opacity="1.000000" stroke="none" 
	d="
M513.000000,427.000000 
	C513.000000,455.648315 513.000000,484.296631 513.000000,512.943237 
	C342.333313,512.941528 171.666656,512.941528 1.000000,512.941528 
	C1.000000,484.567841 1.000000,456.252594 1.273285,427.151245 
	C4.917428,430.342834 9.213005,431.150604 14.310785,431.107300 
	C37.526558,430.910126 60.745495,431.085754 84.088318,431.431030 
	C87.990868,435.172638 91.615082,438.799866 95.578186,442.008545 
	C103.554863,448.466675 111.343437,455.261902 119.884346,460.895020 
	C134.462540,470.509949 149.891968,478.600067 166.189041,485.136261 
	C189.269333,494.393005 213.147858,500.488464 237.846741,501.702759 
	C255.447693,502.568054 273.264587,501.477417 290.833435,499.732300 
	C303.273438,498.496643 315.605225,495.243103 327.729462,491.948792 
	C353.610626,484.916595 377.344574,473.023590 398.958221,457.286987 
	C409.879883,449.335083 419.714722,439.890411 430.504395,431.067963 
	C452.010895,431.011017 473.054047,431.033173 494.097015,430.986847 
	C500.607452,430.972534 507.500214,432.395172 512.676697,426.622406 
	C512.784485,426.748260 512.892212,426.874146 513.000000,427.000000 
z"/>
<path fill="#C5D3DD" opacity="1.000000" stroke="none" 
	d="
M469.039032,384.891998 
	C479.200043,384.927979 489.367493,385.191589 499.519379,384.904663 
	C504.650726,384.759613 508.820435,386.216980 512.728027,389.323303 
	C513.000000,397.020905 513.000000,405.041809 512.531372,413.531372 
	C504.269958,414.000000 496.475830,414.086060 488.685272,413.955505 
	C485.776520,413.906769 482.876221,413.352631 480.131073,412.657471 
	C482.318329,404.602051 478.878357,399.739838 472.355652,401.071167 
	C467.127533,402.138245 465.641235,406.246521 467.699799,413.281952 
	C462.273376,413.690247 457.176636,413.845764 452.235474,413.696228 
	C454.765320,410.357147 455.689819,406.749084 452.909943,403.991394 
	C451.114655,402.210449 447.718292,400.976013 445.198395,401.209839 
	C439.521698,401.736572 438.135437,407.843933 441.450439,414.001892 
	C397.277618,413.966278 353.568024,413.932556 310.044556,413.579681 
	C313.967651,405.663544 311.080139,400.946747 302.589813,400.939423 
	C272.282318,400.913239 241.974823,400.915833 211.667358,400.936798 
	C202.599503,400.943054 199.774384,405.855286 203.662506,413.927002 
	C160.934631,413.968048 118.683517,414.000061 76.432426,413.982483 
	C69.306290,413.979523 65.073807,409.624451 65.010162,402.426300 
	C64.961639,396.937378 64.995308,391.447723 65.462051,385.955231 
	C73.586578,385.933014 81.241463,385.913971 89.370850,385.920410 
	C214.677551,385.961884 339.509735,385.981842 464.341919,385.947998 
	C465.907715,385.947571 467.473328,385.259216 469.039032,384.891998 
z"/>
<path fill="#B6C4CF" opacity="1.000000" stroke="none" 
	d="
M479.972076,413.028961 
	C482.876221,413.352631 485.776520,413.906769 488.685272,413.955505 
	C496.475830,414.086060 504.269958,414.000000 512.531372,414.000000 
	C513.000000,418.024536 513.000000,422.049103 513.000000,426.536804 
	C512.892212,426.874146 512.784485,426.748260 512.676697,426.622406 
	C507.500214,432.395172 500.607452,430.972534 494.097015,430.986847 
	C473.054047,431.033173 452.010895,431.011017 430.037323,431.023193 
	C314.889740,431.017761 200.672684,431.004059 86.455620,430.996613 
	C85.624847,430.996552 84.794067,431.081909 83.963295,431.127319 
	C60.745495,431.085754 37.526558,430.910126 14.310785,431.107300 
	C9.213005,431.150604 4.917428,430.342834 1.273285,426.682617 
	C1.000000,414.645782 1.000000,402.291534 1.000000,389.468658 
	C14.714683,381.207123 29.657869,386.552216 44.890968,384.982971 
	C52.215721,385.307800 58.604061,385.633087 64.992401,385.958374 
	C64.995308,391.447723 64.961639,396.937378 65.010162,402.426300 
	C65.073807,409.624451 69.306290,413.979523 76.432426,413.982483 
	C118.683517,414.000061 160.934631,413.968048 204.002136,414.090118 
	C207.547668,414.785278 210.274948,415.816864 213.006302,415.827820 
	C242.253647,415.944946 271.501953,415.959381 300.749054,415.813110 
	C303.788605,415.797913 306.822144,414.566132 309.858459,413.898834 
	C353.568024,413.932556 397.277618,413.966278 441.788696,414.136475 
	C445.820282,416.518250 448.966888,415.845612 452.079926,414.001312 
	C457.176636,413.845764 462.273376,413.690247 468.000427,413.450439 
	C472.522644,417.003052 476.280548,416.132050 479.972076,413.028961 
M41.104836,415.654114 
	C45.447857,414.343231 48.417389,411.431946 47.084900,406.963135 
	C46.367973,404.558777 43.410084,401.935333 40.915760,401.150085 
	C36.878506,399.879089 33.373505,402.858826 32.660381,406.892334 
	C31.863426,411.399994 34.570011,414.515137 41.104836,415.654114 
z"/>
<path fill="#978ECB" opacity="1.000000" stroke="none" 
	d="
M58.879993,111.928375 
	C67.892441,101.479454 76.358788,90.489632 86.046082,80.709122 
	C100.367935,66.249474 116.776360,54.288582 134.471558,44.137199 
	C154.438690,32.682453 175.526169,23.920406 197.917145,18.690722 
	C209.153397,16.066362 220.659363,14.112172 232.150574,13.188094 
	C246.174026,12.060383 260.346130,11.569953 274.386475,12.233083 
	C286.400696,12.800520 298.465485,14.703094 310.249542,17.223270 
	C332.568115,21.996389 354.070251,29.592836 373.780457,41.150921 
	C387.347229,49.106499 400.068573,58.531879 412.962341,67.592674 
	C417.778839,70.977356 422.446869,74.790779 426.426147,79.106232 
	C436.112885,89.611282 445.356812,100.524673 454.589844,111.852707 
	C452.932129,112.599937 451.463684,112.914482 449.995148,112.914940 
	C406.311249,112.928635 362.627319,112.911194 318.706909,112.610413 
	C314.920166,88.153244 303.490723,68.223602 284.333344,53.432590 
	C264.550171,38.158428 241.753143,32.282402 216.765778,36.003922 
	C198.435440,38.733959 182.655457,46.715103 169.214661,59.324677 
	C153.704514,73.875626 145.064743,91.994736 141.523071,112.914261 
	C127.046928,112.917152 113.038429,112.909393 98.689529,112.663879 
	C85.192749,112.260201 72.036369,112.094284 58.879993,111.928375 
z"/>
<path fill="#B6C4CF" opacity="1.000000" stroke="none" 
	d="
M318.943420,112.898682 
	C362.627319,112.911194 406.311249,112.928635 449.995148,112.914940 
	C451.463684,112.914482 452.932129,112.599937 454.723083,112.165077 
	C463.788391,112.729843 470.171112,119.649315 469.026886,128.525620 
	C468.837708,129.993057 469.005981,131.506577 469.021362,133.924927 
	C469.022491,147.504593 468.998047,160.158096 469.002197,172.811615 
	C469.024933,241.906509 469.054657,311.001404 469.081970,380.096283 
	C469.056213,381.428436 469.030457,382.760620 469.021851,384.492371 
	C467.473328,385.259216 465.907715,385.947571 464.341919,385.947998 
	C339.509735,385.981842 214.677551,385.961884 89.401260,385.464294 
	C88.975121,379.000122 88.993088,373.017639 89.474503,366.965332 
	C96.933456,366.823669 103.928955,366.751770 111.391190,366.758667 
	C123.521492,366.802765 135.185059,366.738922 146.848633,366.737915 
	C242.329056,366.729767 337.809479,366.733978 433.289886,366.732574 
	C446.361389,366.732391 449.004883,364.059052 449.004913,350.865295 
	C449.005035,282.379333 449.008331,213.893387 449.000671,145.407440 
	C448.999603,135.956863 445.836426,132.733948 436.480469,132.728973 
	C399.488068,132.709305 362.495636,132.723831 325.503235,132.709549 
	C323.341064,132.708710 321.178955,132.565826 319.011810,132.052673 
	C318.985657,125.377106 318.964539,119.137894 318.943420,112.898682 
z"/>
<path fill="#9FACBA" opacity="1.000000" stroke="none" 
	d="
M89.011047,367.035126 
	C88.993088,373.017639 88.975121,379.000122 88.926750,385.438782 
	C81.241463,385.913971 73.586578,385.933014 65.462051,385.955231 
	C58.604061,385.633087 52.215721,385.307800 45.351391,384.962067 
	C44.914040,383.595184 44.952679,382.248779 44.981491,380.025146 
	C44.959862,297.400177 44.948059,215.652435 44.936256,133.904694 
	C45.100437,129.955154 44.526550,125.791214 45.597340,122.105034 
	C47.313881,116.195839 51.870937,112.804474 58.493980,111.949203 
	C72.036369,112.094284 85.192749,112.260201 98.474838,112.933014 
	C90.743324,117.222710 88.267784,123.788673 88.533981,132.079605 
	C84.076653,132.173645 80.072227,132.036163 76.088211,132.260773 
	C68.581306,132.683960 65.008530,136.552933 65.007172,144.104843 
	C64.994568,214.360672 64.994553,284.616516 65.006943,354.872345 
	C65.008308,362.608063 68.709236,366.454254 76.536392,366.813202 
	C80.689270,367.003601 84.852493,366.968445 89.011047,367.035126 
z"/>
<path fill="#978ECB" opacity="1.000000" stroke="none" 
	d="
M44.623314,134.067780 
	C44.948059,215.652435 44.959862,297.400177 44.953613,379.621460 
	C34.036095,362.991364 26.307951,344.439575 21.145185,324.940186 
	C17.705624,311.949188 14.747212,298.689880 13.259377,285.362457 
	C11.756816,271.903137 11.887500,258.204834 12.094940,244.623322 
	C12.499923,218.108398 18.403978,192.573212 28.147470,168.034225 
	C32.745903,156.453094 38.874893,145.479660 44.623314,134.067780 
z"/>
<path fill="#978ECB" opacity="1.000000" stroke="none" 
	d="
M469.391418,379.928986 
	C469.054657,311.001404 469.024933,241.906509 469.002197,172.811615 
	C468.998047,160.158096 469.022491,147.504593 469.058258,134.378128 
	C480.006226,150.995071 487.574890,169.607010 492.855591,189.056107 
	C496.291901,201.712234 499.291534,214.640884 500.734741,227.641922 
	C502.247314,241.267578 502.103119,255.131897 501.907135,268.880859 
	C501.524506,295.718903 495.580353,321.566376 485.721405,346.406433 
	C481.182343,357.842804 475.089264,368.662415 469.391418,379.928986 
z"/>
<path fill="#6CF5C2" opacity="1.000000" stroke="none" 
	d="
M84.088318,431.431061 
	C84.794067,431.081909 85.624847,430.996552 86.455620,430.996613 
	C200.672684,431.004059 314.889740,431.017761 429.573914,431.075928 
	C419.714722,439.890411 409.879883,449.335083 398.958221,457.286987 
	C377.344574,473.023590 353.610626,484.916595 327.729462,491.948792 
	C315.605225,495.243103 303.273438,498.496643 290.833435,499.732300 
	C273.264587,501.477417 255.447693,502.568054 237.846741,501.702759 
	C213.147858,500.488464 189.269333,494.393005 166.189041,485.136261 
	C149.891968,478.600067 134.462540,470.509949 119.884346,460.895020 
	C111.343437,455.261902 103.554863,448.466675 95.578186,442.008545 
	C91.615082,438.799866 87.990868,435.172638 84.088318,431.431061 
z"/>
<path fill="#FDFEFE" opacity="1.000000" stroke="none" 
	d="
M310.044556,413.579681 
	C306.822144,414.566132 303.788605,415.797913 300.749054,415.813110 
	C271.501953,415.959381 242.253647,415.944946 213.006302,415.827820 
	C210.274948,415.816864 207.547668,414.785278 204.478882,414.064453 
	C199.774384,405.855286 202.599503,400.943054 211.667358,400.936798 
	C241.974823,400.915833 272.282318,400.913239 302.589813,400.939423 
	C311.080139,400.946747 313.967651,405.663544 310.044556,413.579681 
z"/>
<path fill="#FCE35E" opacity="1.000000" stroke="none" 
	d="
M452.235474,413.696228 
	C448.966888,415.845612 445.820282,416.518250 442.251953,414.138336 
	C438.135437,407.843933 439.521698,401.736572 445.198395,401.209839 
	C447.718292,400.976013 451.114655,402.210449 452.909943,403.991394 
	C455.689819,406.749084 454.765320,410.357147 452.235474,413.696228 
z"/>
<path fill="#6EF4C3" opacity="1.000000" stroke="none" 
	d="
M480.131073,412.657471 
	C476.280548,416.132050 472.522644,417.003052 468.330139,413.197662 
	C465.641235,406.246521 467.127533,402.138245 472.355652,401.071167 
	C478.878357,399.739838 482.318329,404.602051 480.131073,412.657471 
z"/>
<path fill="#FCE35D" opacity="1.000000" stroke="none" 
	d="
M40.737579,415.710083 
	C34.570011,414.515137 31.863426,411.399994 32.660381,406.892334 
	C33.373505,402.858826 36.878506,399.879089 40.915760,401.150085 
	C43.410084,401.935333 46.367973,404.558777 47.084900,406.963135 
	C48.417389,411.431946 45.447857,414.343231 40.737579,415.710083 
z"/>
<path fill="#ABA6D5" opacity="1.000000" stroke="none" 
	d="
M318.706909,112.610413 
	C318.964539,119.137894 318.985657,125.377106 318.549011,132.134506 
	C308.460510,132.796509 298.829803,132.940323 289.142334,132.662140 
	C289.068024,125.984299 290.044434,119.533051 288.859741,113.506622 
	C283.895844,88.255127 268.627258,71.678337 243.680664,65.746361 
	C219.296188,59.948044 198.704788,67.883118 183.010025,87.445328 
	C172.361359,100.718025 169.047852,116.187492 170.554825,132.863113 
	C160.718979,132.699707 151.350464,132.594193 141.983063,132.052338 
	C141.986359,125.378525 141.988541,119.141068 141.990723,112.903610 
	C145.064743,91.994736 153.704514,73.875626 169.214661,59.324677 
	C182.655457,46.715103 198.435440,38.733959 216.765778,36.003922 
	C241.753143,32.282402 264.550171,38.158428 284.333344,53.432590 
	C303.490723,68.223602 314.920166,88.153244 318.706909,112.610413 
z"/>
<path fill="#B6C4CF" opacity="1.000000" stroke="none" 
	d="
M141.523071,112.914261 
	C141.988541,119.141068 141.986359,125.378525 141.520004,132.119766 
	C131.008331,132.548416 120.960846,132.473297 110.455544,132.331757 
	C102.997177,132.180756 95.996635,132.096146 88.996086,132.011536 
	C88.267784,123.788673 90.743324,117.222710 98.815247,113.170776 
	C113.038429,112.909393 127.046928,112.917152 141.523071,112.914261 
z"/>
<path fill="#5A6D77" opacity="1.000000" stroke="none" 
	d="
M110.913361,132.398163 
	C120.960846,132.473297 131.008331,132.548416 141.518890,132.556122 
	C151.350464,132.594193 160.718979,132.699707 170.661469,133.239136 
	C173.699097,140.343063 175.375000,147.447433 178.769577,153.604187 
	C190.388885,174.678207 217.257278,190.009155 249.124069,180.915939 
	C251.678879,187.441620 253.944870,193.680771 256.361877,199.860855 
	C257.614685,203.064163 259.723907,205.416992 263.023773,202.270264 
	C267.936279,197.585739 272.486389,192.521133 277.519562,187.474731 
	C278.541107,187.300674 279.233795,187.270157 280.067932,187.531219 
	C286.188904,193.836884 292.212341,199.808258 298.126160,205.886292 
	C300.452515,208.277283 302.492065,208.473801 304.881165,206.005447 
	C308.928833,201.823486 313.070068,197.730835 317.221802,193.651352 
	C319.569275,191.344757 319.713257,189.152161 317.298096,186.798676 
	C310.873962,180.538574 304.485657,174.241730 298.169922,167.639038 
	C302.883026,162.585312 307.532623,157.874588 312.128510,153.111984 
	C316.159851,148.934387 315.769226,147.003571 310.433380,144.949280 
	C303.178650,142.156204 295.889191,139.453430 288.699554,136.261078 
	C288.922699,134.901535 289.060913,133.992844 289.199127,133.084137 
	C298.829803,132.940323 308.460510,132.796509 318.554016,132.570862 
	C321.178955,132.565826 323.341064,132.708710 325.503235,132.709549 
	C362.495636,132.723831 399.488068,132.709305 436.480469,132.728973 
	C445.836426,132.733948 448.999603,135.956863 449.000671,145.407440 
	C449.008331,213.893387 449.005035,282.379333 449.004913,350.865295 
	C449.004883,364.059052 446.361389,366.732391 433.289886,366.732574 
	C337.809479,366.733978 242.329056,366.729767 146.848633,366.737915 
	C135.185059,366.738922 123.521492,366.802765 111.299622,366.456909 
	C105.995972,362.672607 104.472412,358.061432 104.919785,352.313782 
	C105.315948,347.224121 105.005997,342.079468 105.466949,336.858887 
	C113.413994,336.737946 120.904381,336.834625 128.389267,336.674316 
	C150.102264,336.209320 164.941086,321.203735 165.065170,299.624603 
	C165.131195,288.142975 165.165512,276.659729 165.052139,265.178864 
	C164.849487,244.655167 149.527451,229.400345 128.932877,229.116165 
	C120.950813,229.006027 112.967674,228.974350 104.989990,228.444138 
	C104.994713,213.351349 104.994484,198.721375 105.331909,184.009338 
	C106.122612,183.836807 106.575661,183.746323 107.492714,183.702240 
	C114.118210,183.696228 120.279747,183.647659 126.441193,183.590103 
	C130.917969,183.548294 133.193024,181.483704 133.031891,176.804047 
	C132.877243,172.312302 132.894089,167.807968 133.027435,163.314850 
	C133.163895,158.716110 131.162796,156.553116 126.498291,156.590973 
	C120.010406,156.643631 113.520813,156.485336 106.697884,156.315308 
	C105.907532,156.123871 105.451248,156.034454 104.997169,155.480835 
	C105.326439,147.047226 102.772491,138.324524 110.913361,132.398163 
M383.987549,183.745346 
	C395.133057,183.736176 406.279633,183.817490 417.423584,183.681183 
	C423.359863,183.608582 424.930634,181.925812 424.990356,176.316666 
	C425.032837,172.324677 425.016785,168.331787 424.995117,164.339447 
	C424.959747,157.813309 423.955109,156.801941 417.482697,156.736465 
	C406.012268,156.620468 394.541779,156.512604 382.143127,156.189392 
	C375.828094,156.155090 369.512115,156.042175 363.198334,156.115356 
	C359.286621,156.160706 356.972321,158.081955 356.983398,162.250504 
	C356.997040,167.403244 357.007355,172.556168 356.979828,177.708817 
	C356.957642,181.865433 359.227539,183.873581 363.139923,183.902084 
	C369.780243,183.950455 376.422333,183.755173 383.987549,183.745346 
M257.302551,248.515564 
	C257.302582,274.165375 257.285828,299.815247 257.333405,325.464966 
	C257.337372,327.602570 257.018921,330.412079 258.184540,331.723206 
	C260.060944,333.833893 263.171967,336.320221 265.534424,336.108978 
	C267.871063,335.900085 270.222290,332.771149 271.975494,330.471985 
	C272.802917,329.386841 272.307587,327.247009 272.308838,325.584991 
	C272.323425,306.430878 272.318237,287.276764 272.318298,268.122650 
	C272.318298,266.411469 272.318298,264.700317 272.318298,262.989136 
	C279.317108,271.042969 284.994049,279.407867 290.806732,287.677307 
	C294.972229,293.603302 300.375854,293.685913 304.568176,287.826691 
	C309.216522,281.330048 313.626251,274.662811 318.153137,268.079010 
	C319.483673,266.143890 320.859344,264.239838 323.033875,261.161316 
	C323.033875,265.281525 323.033691,267.757690 323.033905,270.233826 
	C323.035614,289.554474 322.992188,308.875336 323.070190,328.195679 
	C323.090424,333.207031 326.190857,336.501221 330.469055,336.562714 
	C334.801331,336.624969 337.990936,333.388977 338.001709,328.394135 
	C338.066895,298.080811 338.029022,267.767303 338.048706,237.453873 
	C338.051270,233.484283 336.382050,230.691513 332.530762,229.528732 
	C328.808167,228.404785 326.070709,230.063385 323.989044,233.053741 
	C321.516510,236.605637 319.092072,240.190964 316.640778,243.757690 
	C310.436890,252.784622 304.229614,261.809235 297.812500,271.141907 
	C296.921967,269.937622 296.328033,269.182220 295.784424,268.392212 
	C287.952942,257.010956 280.103333,245.642029 272.317291,234.229767 
	C270.009491,230.847214 267.372192,228.188995 262.871124,229.556290 
	C258.213867,230.971039 257.201508,234.698456 257.293243,239.029556 
	C257.353210,241.859756 257.303345,244.692261 257.302551,248.515564 
M231.401642,275.306854 
	C218.646973,275.306854 205.892303,275.306854 193.191345,275.306854 
	C193.191345,264.509369 193.191345,254.471588 193.191345,244.129364 
	C208.098953,244.129364 222.574036,244.159698 237.048904,244.114761 
	C243.026260,244.096207 246.187881,241.400055 246.137833,236.590332 
	C246.088791,231.876663 242.807373,229.144669 236.880630,229.128860 
	C220.218826,229.084442 203.556656,229.073257 186.894958,229.133667 
	C180.403336,229.157227 177.770981,231.766235 177.760880,238.241074 
	C177.714340,268.065857 177.710770,297.890808 177.763657,327.715576 
	C177.774719,333.947601 180.313919,336.597229 186.592453,336.643585 
	C203.420090,336.767731 220.249557,336.747284 237.077606,336.656769 
	C243.010330,336.624847 246.184387,333.747711 246.126907,328.969910 
	C246.069504,324.199677 242.980316,321.708160 236.823425,321.685516 
	C223.993896,321.638367 211.164078,321.679657 198.334412,321.659210 
	C196.583923,321.656433 194.833664,321.507996 192.985168,321.422455 
	C192.985168,310.876404 192.985168,300.924744 192.985168,290.329956 
	C194.992294,290.329956 196.775101,290.331512 198.557922,290.329681 
	C211.887161,290.315979 225.217468,290.393829 238.545029,290.237396 
	C243.198181,290.182770 245.929184,287.389069 246.123047,283.276581 
	C246.327515,278.938965 243.598557,275.886505 238.856628,275.404419 
	C236.711182,275.186340 234.529129,275.328369 231.401642,275.306854 
M407.341644,328.872894 
	C412.881866,323.681335 416.935760,317.454803 417.078461,309.798615 
	C417.413330,291.831512 417.732452,273.831207 416.995026,255.888016 
	C416.459595,242.860382 406.063995,232.126099 393.114380,229.983307 
	C387.438660,229.044128 381.442841,228.813766 375.740326,229.496826 
	C359.861328,231.398849 349.071533,243.851578 348.956482,259.820587 
	C348.843781,275.472931 348.717926,291.131104 349.016693,306.778687 
	C349.262787,319.666260 355.535492,329.474396 367.502319,333.921234 
	C380.980988,338.929901 394.625366,338.790619 407.341644,328.872894 
z"/>
<path fill="#465A61" opacity="1.000000" stroke="none" 
	d="
M105.007774,336.959106 
	C105.005997,342.079468 105.315948,347.224121 104.919785,352.313782 
	C104.472412,358.061432 105.995972,362.672607 110.832893,366.378113 
	C103.928955,366.751770 96.933456,366.823669 89.474503,366.965332 
	C84.852493,366.968445 80.689270,367.003601 76.536392,366.813202 
	C68.709236,366.454254 65.008308,362.608063 65.006943,354.872345 
	C64.994553,284.616516 64.994568,214.360672 65.007172,144.104843 
	C65.008530,136.552933 68.581306,132.683960 76.088211,132.260773 
	C80.072227,132.036163 84.076653,132.173645 88.533981,132.079605 
	C95.996635,132.096146 102.997177,132.180756 110.455544,132.331757 
	C102.772491,138.324524 105.326439,147.047226 104.541916,155.562637 
	C101.266800,156.126434 98.449013,156.133392 95.631500,156.164520 
	C91.283554,156.212555 88.788025,158.008331 88.948433,162.770676 
	C89.110161,167.572311 89.117218,172.388397 88.946144,177.189392 
	C88.777756,181.915207 91.192970,183.792007 95.559364,183.888458 
	C98.704285,183.957932 101.849281,184.023865 104.994247,184.091370 
	C104.994484,198.721375 104.994713,213.351349 104.621017,228.531616 
	C97.914429,230.583405 96.475754,232.340836 96.467972,239.159409 
	C96.434776,268.241699 96.435158,297.324097 96.464462,326.406403 
	C96.471718,333.604309 97.822983,335.183380 105.007774,336.959106 
z"/>
<path fill="#FDFDFE" opacity="1.000000" stroke="none" 
	d="
M248.897858,180.604919 
	C217.257278,190.009155 190.388885,174.678207 178.769577,153.604187 
	C175.375000,147.447433 173.699097,140.343063 171.128799,133.297028 
	C169.047852,116.187492 172.361359,100.718025 183.010025,87.445328 
	C198.704788,67.883118 219.296188,59.948044 243.680664,65.746361 
	C268.627258,71.678337 283.895844,88.255127 288.859741,113.506622 
	C290.044434,119.533051 289.068024,125.984299 289.142334,132.662140 
	C289.060913,133.992844 288.922699,134.901535 288.335449,136.145874 
	C283.243073,134.745407 278.599762,133.009293 274.112579,130.867203 
	C274.484467,129.322968 274.821930,128.192734 274.897797,127.045235 
	C276.105042,108.790466 265.766541,90.954666 249.675415,83.470695 
	C232.354233,75.414619 212.179581,78.489677 198.882111,91.957191 
	C187.943192,103.035973 183.356949,116.431190 186.838135,132.449402 
	C187.119095,134.467987 187.315491,136.131912 187.829788,137.690964 
	C195.524796,161.017242 218.679276,172.858704 244.001953,166.748535 
	C245.735214,171.613571 247.316528,176.109238 248.897858,180.604919 
z"/>
<path fill="#FCFDFD" opacity="1.000000" stroke="none" 
	d="
M257.302612,248.019653 
	C257.303345,244.692261 257.353210,241.859756 257.293243,239.029556 
	C257.201508,234.698456 258.213867,230.971039 262.871124,229.556290 
	C267.372192,228.188995 270.009491,230.847214 272.317291,234.229767 
	C280.103333,245.642029 287.952942,257.010956 295.784424,268.392212 
	C296.328033,269.182220 296.921967,269.937622 297.812500,271.141907 
	C304.229614,261.809235 310.436890,252.784622 316.640778,243.757690 
	C319.092072,240.190964 321.516510,236.605637 323.989044,233.053741 
	C326.070709,230.063385 328.808167,228.404785 332.530762,229.528732 
	C336.382050,230.691513 338.051270,233.484283 338.048706,237.453873 
	C338.029022,267.767303 338.066895,298.080811 338.001709,328.394135 
	C337.990936,333.388977 334.801331,336.624969 330.469055,336.562714 
	C326.190857,336.501221 323.090424,333.207031 323.070190,328.195679 
	C322.992188,308.875336 323.035614,289.554474 323.033905,270.233826 
	C323.033691,267.757690 323.033875,265.281525 323.033875,261.161316 
	C320.859344,264.239838 319.483673,266.143890 318.153137,268.079010 
	C313.626251,274.662811 309.216522,281.330048 304.568176,287.826691 
	C300.375854,293.685913 294.972229,293.603302 290.806732,287.677307 
	C284.994049,279.407867 279.317108,271.042969 272.318298,262.989136 
	C272.318298,264.700317 272.318298,266.411469 272.318298,268.122650 
	C272.318237,287.276764 272.323425,306.430878 272.308838,325.584991 
	C272.307587,327.247009 272.802917,329.386841 271.975494,330.471985 
	C270.222290,332.771149 267.871063,335.900085 265.534424,336.108978 
	C263.171967,336.320221 260.060944,333.833893 258.184540,331.723206 
	C257.018921,330.412079 257.337372,327.602570 257.333405,325.464966 
	C257.285828,299.815247 257.302582,274.165375 257.302612,248.019653 
z"/>
<path fill="#FAFAFB" opacity="1.000000" stroke="none" 
	d="
M105.466949,336.858887 
	C97.822983,335.183380 96.471718,333.604309 96.464462,326.406403 
	C96.435158,297.324097 96.434776,268.241699 96.467972,239.159409 
	C96.475754,232.340836 97.914429,230.583405 104.616051,228.994415 
	C112.967674,228.974350 120.950813,229.006027 128.932877,229.116165 
	C149.527451,229.400345 164.849487,244.655167 165.052139,265.178864 
	C165.165512,276.659729 165.131195,288.142975 165.065170,299.624603 
	C164.941086,321.203735 150.102264,336.209320 128.389267,336.674316 
	C120.904381,336.834625 113.413994,336.737946 105.466949,336.858887 
M129.082977,244.141861 
	C123.459534,244.141861 117.836090,244.141861 112.004181,244.141861 
	C112.004181,270.190094 112.004181,295.704803 112.004181,321.578461 
	C118.083702,321.578461 123.739754,321.790619 129.374634,321.535217 
	C141.948471,320.965363 149.948395,312.538025 150.032394,299.923553 
	C150.105621,288.928925 150.069366,277.933380 150.043640,266.938324 
	C150.012131,253.472595 143.371017,245.952530 129.082977,244.141861 
z"/>
<path fill="#FCFCFC" opacity="1.000000" stroke="none" 
	d="
M231.882660,275.306946 
	C234.529129,275.328369 236.711182,275.186340 238.856628,275.404419 
	C243.598557,275.886505 246.327515,278.938965 246.123047,283.276581 
	C245.929184,287.389069 243.198181,290.182770 238.545029,290.237396 
	C225.217468,290.393829 211.887161,290.315979 198.557922,290.329681 
	C196.775101,290.331512 194.992294,290.329956 192.985168,290.329956 
	C192.985168,300.924744 192.985168,310.876404 192.985168,321.422455 
	C194.833664,321.507996 196.583923,321.656433 198.334412,321.659210 
	C211.164078,321.679657 223.993896,321.638367 236.823425,321.685516 
	C242.980316,321.708160 246.069504,324.199677 246.126907,328.969910 
	C246.184387,333.747711 243.010330,336.624847 237.077606,336.656769 
	C220.249557,336.747284 203.420090,336.767731 186.592453,336.643585 
	C180.313919,336.597229 177.774719,333.947601 177.763657,327.715576 
	C177.710770,297.890808 177.714340,268.065857 177.760880,238.241074 
	C177.770981,231.766235 180.403336,229.157227 186.894958,229.133667 
	C203.556656,229.073257 220.218826,229.084442 236.880630,229.128860 
	C242.807373,229.144669 246.088791,231.876663 246.137833,236.590332 
	C246.187881,241.400055 243.026260,244.096207 237.048904,244.114761 
	C222.574036,244.159698 208.098953,244.129364 193.191345,244.129364 
	C193.191345,254.471588 193.191345,264.509369 193.191345,275.306854 
	C205.892303,275.306854 218.646973,275.306854 231.882660,275.306946 
z"/>
<path fill="#FBFBFC" opacity="1.000000" stroke="none" 
	d="
M407.065277,329.102631 
	C394.625366,338.790619 380.980988,338.929901 367.502319,333.921234 
	C355.535492,329.474396 349.262787,319.666260 349.016693,306.778687 
	C348.717926,291.131104 348.843781,275.472931 348.956482,259.820587 
	C349.071533,243.851578 359.861328,231.398849 375.740326,229.496826 
	C381.442841,228.813766 387.438660,229.044128 393.114380,229.983307 
	C406.063995,232.126099 416.459595,242.860382 416.995026,255.888016 
	C417.732452,273.831207 417.413330,291.831512 417.078461,309.798615 
	C416.935760,317.454803 412.881866,323.681335 407.065277,329.102631 
M366.133881,314.094543 
	C371.559357,322.709015 380.128754,322.071777 388.480896,321.363251 
	C396.523010,320.681000 402.148987,314.920410 402.292664,306.869904 
	C402.578064,290.877625 402.590637,274.872559 402.287598,258.880920 
	C402.129395,250.532043 395.885315,244.730804 387.498657,244.179947 
	C385.175232,244.027344 382.833588,244.106277 380.501251,244.141754 
	C370.313171,244.296677 364.000183,250.573746 363.961914,260.733978 
	C363.906067,275.565613 363.855865,290.398712 364.032806,305.228455 
	C364.065338,307.955017 365.189087,310.668518 366.133881,314.094543 
z"/>
<path fill="#09A9F1" opacity="1.000000" stroke="none" 
	d="
M249.124069,180.915939 
	C247.316528,176.109238 245.735214,171.613571 243.964798,166.428253 
	C241.741425,160.443909 239.707169,155.149231 237.637604,149.517731 
	C237.386200,148.786011 237.170120,148.391098 236.956223,147.620605 
	C233.843994,138.733658 230.660156,130.246780 227.643570,121.700874 
	C226.063995,117.225914 228.015610,114.666908 232.145325,116.081291 
	C239.912781,118.741562 247.502411,121.920990 254.977127,125.129623 
	C255.207489,127.129578 255.452927,128.948547 256.072540,130.629593 
	C263.078827,149.638000 270.142456,168.625305 277.190735,187.618271 
	C272.486389,192.521133 267.936279,197.585739 263.023773,202.270264 
	C259.723907,205.416992 257.614685,203.064163 256.361877,199.860855 
	C253.944870,193.680771 251.678879,187.441620 249.124069,180.915939 
z"/>
<path fill="#02BFF9" opacity="1.000000" stroke="none" 
	d="
M277.519592,187.474731 
	C270.142456,168.625305 263.078827,149.638000 256.072540,130.629593 
	C255.452927,128.948547 255.207489,127.129578 255.274902,125.126587 
	C256.154541,124.893158 256.547577,124.907799 257.249939,125.115891 
	C263.024994,127.297287 268.490723,129.285233 273.956451,131.273178 
	C278.599762,133.009293 283.243073,134.745407 288.250488,136.596725 
	C295.889191,139.453430 303.178650,142.156204 310.433380,144.949280 
	C315.769226,147.003571 316.159851,148.934387 312.128510,153.111984 
	C307.532623,157.874588 302.883026,162.585312 297.870422,167.798233 
	C293.609528,172.063446 289.626556,175.746124 285.901520,179.673477 
	C283.699036,181.995590 281.904480,184.704605 279.926483,187.239655 
	C279.233795,187.270157 278.541107,187.300674 277.519592,187.474731 
z"/>
<path fill="#05E39C" opacity="1.000000" stroke="none" 
	d="
M383.071320,156.401321 
	C394.541779,156.512604 406.012268,156.620468 417.482697,156.736465 
	C423.955109,156.801941 424.959747,157.813309 424.995117,164.339447 
	C425.016785,168.331787 425.032837,172.324677 424.990356,176.316666 
	C424.930634,181.925812 423.359863,183.608582 417.423584,183.681183 
	C406.279633,183.817490 395.133057,183.736176 383.422058,183.355453 
	C379.885559,174.086212 379.748596,165.229782 383.071320,156.401321 
z"/>
<path fill="#08A9F0" opacity="1.000000" stroke="none" 
	d="
M280.067932,187.531219 
	C281.904480,184.704605 283.699036,181.995590 285.901520,179.673477 
	C289.626556,175.746124 293.609528,172.063446 297.783569,168.118698 
	C304.485657,174.241730 310.873962,180.538574 317.298096,186.798676 
	C319.713257,189.152161 319.569275,191.344757 317.221802,193.651352 
	C313.070068,197.730835 308.928833,201.823486 304.881165,206.005447 
	C302.492065,208.473801 300.452515,208.277283 298.126160,205.886292 
	C292.212341,199.808258 286.188904,193.836884 280.067932,187.531219 
z"/>
<path fill="#FED402" opacity="1.000000" stroke="none" 
	d="
M107.031952,156.417343 
	C113.520813,156.485336 120.010406,156.643631 126.498291,156.590973 
	C131.162796,156.553116 133.163895,158.716110 133.027435,163.314850 
	C132.894089,167.807968 132.877243,172.312302 133.031891,176.804047 
	C133.193024,181.483704 130.917969,183.548294 126.441193,183.590103 
	C120.279747,183.647659 114.118210,183.696228 107.398315,183.347946 
	C103.835426,174.081741 103.809227,165.237793 107.031952,156.417343 
z"/>
<path fill="#12CC8F" opacity="1.000000" stroke="none" 
	d="
M382.607239,156.295349 
	C379.748596,165.229782 379.885559,174.086212 382.960114,183.313934 
	C376.422333,183.755173 369.780243,183.950455 363.139923,183.902084 
	C359.227539,183.873581 356.957642,181.865433 356.979828,177.708817 
	C357.007355,172.556168 356.997040,167.403244 356.983398,162.250504 
	C356.972321,158.081955 359.286621,156.160706 363.198334,156.115356 
	C369.512115,156.042175 375.828094,156.155090 382.607239,156.295349 
z"/>
<path fill="#F4C304" opacity="1.000000" stroke="none" 
	d="
M106.697884,156.315308 
	C103.809227,165.237793 103.835426,174.081741 106.934311,183.301544 
	C106.575661,183.746323 106.122612,183.836807 105.331909,184.009338 
	C101.849281,184.023865 98.704285,183.957932 95.559364,183.888458 
	C91.192970,183.792007 88.777756,181.915207 88.946144,177.189392 
	C89.117218,172.388397 89.110161,167.572311 88.948433,162.770676 
	C88.788025,158.008331 91.283554,156.212555 95.631500,156.164520 
	C98.449013,156.133392 101.266800,156.126434 104.539719,156.026840 
	C105.451248,156.034454 105.907532,156.123871 106.697884,156.315308 
z"/>
<path fill="#ADA7D6" opacity="1.000000" stroke="none" 
	d="
M274.112579,130.867203 
	C268.490723,129.285233 263.024994,127.297287 257.267548,124.695099 
	C256.637085,111.796112 249.879501,102.213577 238.891754,98.631142 
	C223.716370,93.315445 207.576843,101.960297 204.258423,117.310112 
	C203.242050,122.011444 204.058212,127.108948 203.571625,132.112274 
	C197.705872,132.148331 192.303650,132.097153 186.901443,132.045975 
	C183.356949,116.431190 187.943192,103.035973 198.882111,91.957191 
	C212.179581,78.489677 232.354233,75.414619 249.675415,83.470695 
	C265.766541,90.954666 276.105042,108.790466 274.897797,127.045235 
	C274.821930,128.192734 274.484467,129.322968 274.112579,130.867203 
z"/>
<path fill="#5A6E78" opacity="1.000000" stroke="none" 
	d="
M186.838135,132.449402 
	C192.303650,132.097153 197.705872,132.148331 203.830444,132.327927 
	C211.656906,147.262039 220.421463,151.866119 237.672913,149.854538 
	C239.707169,155.149231 241.741425,160.443909 243.812866,166.058884 
	C218.679276,172.858704 195.524796,161.017242 187.829788,137.690964 
	C187.315491,136.131912 187.119095,134.467987 186.838135,132.449402 
z"/>
<path fill="#5A6D77" opacity="1.000000" stroke="none" 
	d="
M129.534271,244.151367 
	C143.371017,245.952530 150.012131,253.472595 150.043640,266.938324 
	C150.069366,277.933380 150.105621,288.928925 150.032394,299.923553 
	C149.948395,312.538025 141.948471,320.965363 129.374634,321.535217 
	C123.739754,321.790619 118.083702,321.578461 112.004181,321.578461 
	C112.004181,295.704803 112.004181,270.190094 112.004181,244.141861 
	C117.836090,244.141861 123.459534,244.141861 129.534271,244.151367 
z"/>
<path fill="#5A6D77" opacity="1.000000" stroke="none" 
	d="
M365.971527,313.741302 
	C365.189087,310.668518 364.065338,307.955017 364.032806,305.228455 
	C363.855865,290.398712 363.906067,275.565613 363.961914,260.733978 
	C364.000183,250.573746 370.313171,244.296677 380.501251,244.141754 
	C382.833588,244.106277 385.175232,244.027344 387.498657,244.179947 
	C395.885315,244.730804 402.129395,250.532043 402.287598,258.880920 
	C402.590637,274.872559 402.578064,290.877625 402.292664,306.869904 
	C402.148987,314.920410 396.523010,320.681000 388.480896,321.363251 
	C380.128754,322.071777 371.559357,322.709015 365.971527,313.741302 
z"/>
<path fill="#E9F5FE" opacity="1.000000" stroke="none" 
	d="
M237.637604,149.517731 
	C220.421463,151.866119 211.656906,147.262039 204.294006,132.240692 
	C204.058212,127.108948 203.242050,122.011444 204.258423,117.310112 
	C207.576843,101.960297 223.716370,93.315445 238.486786,98.670090 
	C227.876877,101.146873 223.064346,108.762337 220.492950,118.218689 
	C217.232468,130.209198 225.764526,145.409134 236.954041,147.996185 
	C237.170120,148.391098 237.386200,148.786011 237.637604,149.517731 
z"/>
<path fill="#FDFEFF" opacity="1.000000" stroke="none" 
	d="
M236.956223,147.620605 
	C225.764526,145.409134 217.232468,130.209198 220.492950,118.218689 
	C223.064346,108.762337 227.876877,101.146873 238.794617,98.912361 
	C249.879501,102.213577 256.637085,111.796112 256.958221,124.501648 
	C256.547577,124.907799 256.154541,124.893158 255.463745,124.881538 
	C247.502411,121.920990 239.912781,118.741562 232.145325,116.081291 
	C228.015610,114.666908 226.063995,117.225914 227.643570,121.700874 
	C230.660156,130.246780 233.843994,138.733658 236.956223,147.620605 
z"/>
</svg>